<svg width="25" height="24" viewBox="0 0 25 24" fill="none" xmlns="http://www.w3.org/2000/svg">
<path fill-rule="evenodd" clip-rule="evenodd" d="M0.0390625 3.58714C0.0390625 2.21873 1.13302 1.1084 2.48129 1.1084H7.89841C8.16781 1.1084 8.38685 1.32996 8.38685 1.60441C8.38685 1.87885 8.16781 2.10042 7.89841 2.10042H2.48129C1.67184 2.10042 1.01594 2.76637 1.01594 3.58718V21.2456C1.01594 22.3924 2.24084 23.1075 3.21772 22.5309L7.95001 19.7349C8.6915 19.2968 9.60544 19.2868 10.357 19.7072L15.5875 22.6366C16.5632 23.1842 17.7604 22.4667 17.7604 21.3349V14.98C17.7604 14.7068 17.9782 14.4852 18.2476 14.4852C18.5182 14.4852 18.736 14.7068 18.736 14.98V21.3349C18.736 23.222 16.7432 24.4167 15.1156 23.5053L9.88504 20.5758C9.43437 20.3228 8.88673 20.3291 8.44109 20.5922L3.70881 23.3882C2.08106 24.35 0.0390625 23.1578 0.0390625 21.2456V3.58714Z" fill="black"/>
<path fill-rule="evenodd" clip-rule="evenodd" d="M17.7377 2.63422C17.7717 2.80669 17.8963 2.95649 18.0751 3.01189C18.1229 3.02574 18.1708 3.03329 18.2186 3.03329C18.2664 3.03329 18.3155 3.02574 18.3634 3.01189C18.5409 2.9565 18.6655 2.80669 18.7007 2.63422C18.7549 2.497 18.8858 2.2918 19.1099 2.05764C19.3528 1.8046 19.6726 1.55408 20.0276 1.364C20.7502 0.977532 21.5119 0.889389 22.1274 1.33127C22.704 1.74546 22.9772 2.22507 23.0452 2.74374C23.1157 3.28004 22.9747 3.92459 22.5945 4.66102C21.8631 6.076 20.3235 7.6836 18.2248 9.21831C16.2861 7.74416 14.7426 6.13907 13.9685 4.70259C13.5631 3.95105 13.3932 3.29012 13.441 2.74126C13.4876 2.2163 13.7394 1.73792 14.3071 1.33131C14.924 0.889435 15.6856 0.977544 16.4095 1.36404C16.7645 1.55413 17.0843 1.80465 17.3272 2.05767C17.5513 2.29182 17.6836 2.49825 17.7377 2.63422ZM18.2186 1.58054C18.1582 1.50627 18.0927 1.43451 18.026 1.36527C17.715 1.04048 17.3135 0.727005 16.864 0.486556C15.9752 0.0119416 14.7843 -0.223448 13.7445 0.521806C12.9652 1.0795 12.5435 1.81091 12.4692 2.65185C12.3962 3.47014 12.6556 4.33245 13.1125 5.17842C14.0164 6.8565 15.7852 8.63772 17.8874 10.1988C17.9793 10.2844 18.0989 10.3285 18.2197 10.3285C18.3368 10.3285 18.4526 10.2857 18.5432 10.2051C20.8205 8.57862 22.5955 6.79222 23.4592 5.12187C23.8948 4.27716 24.1189 3.42113 24.0131 2.6129C23.9049 1.78581 23.4605 1.07329 22.69 0.52188C21.6514 -0.22338 20.4605 0.0120412 19.573 0.48663C19.1224 0.727076 18.722 1.04181 18.4111 1.36534C18.3443 1.43458 18.2803 1.50753 18.2186 1.58054Z" fill="black"/>
</svg>
