<svg width="41" height="42" viewBox="0 0 41 42" fill="none" xmlns="http://www.w3.org/2000/svg">
<path d="M17.3528 0C17.7047 1.34723 17.6478 2.10906 19.5951 2.83184C18.5545 3.04564 18.0982 3.22723 16.4257 2.39619C16.7437 3.74281 16.7895 4.72571 19.0325 5.02363C17.9818 7.63791 18.2137 11.0524 19.6204 13.8885C15.8263 10.2745 13.5496 0.690591 13.9703 0.0356174C12.5309 1.37066 11.4261 2.70604 10.6384 4.56183C9.12472 9.81776 8.65453 15.9791 11.6339 20.8837C13.2655 22.9952 15.6687 24.0302 18.7641 23.0977C17.0435 24.9575 13.4578 25.0322 13.5305 27.6414C11.4582 27.6519 8.11341 32.0342 6.51888 30.1201C5.03931 28.3441 10.2199 25.8667 9.65715 23.616C9.23099 21.9117 5.95076 21.3174 3.55913 19.2609C4.24639 16.7038 2.21953 15.8225 0 15.2522C1.08919 16.5322 1.2394 18.6196 0.75281 19.8378C0.839031 19.8814 1.91172 19.6791 2.31096 20.0203C3.98981 21.4553 9.14937 22.9473 7.6243 24.6134C5.74645 26.6648 2.87926 29.0864 4.26245 31.2139C5.89909 33.7312 10.8056 32.9182 13.403 30.8945C13.3469 32.7911 11.9377 34.9497 9.28422 35.5197C8.29732 35.6641 8.83358 38.8117 6.33897 40.4739C6.81636 40.8606 9.06802 42.3241 9.6753 41.8938C11.1142 40.8745 12.8695 39.6575 15.0479 42C14.4201 39.451 13.7459 38.7233 10.1846 39.3237C10.945 38.522 13.4644 37.66 15.0399 38.3672C19.8131 36.6323 17.8174 35.0451 20.851 32.0464C23.5275 32.8582 22.8264 35.9729 24.6698 37.0229C27.1935 36.5611 28.5262 36.0815 29.1637 36.8354C29.7981 37.649 30.1634 37.8636 31.7026 37.8078C32.7185 38.0399 33.7498 39.1869 31.9358 40.7261C35.4776 40.2309 35.1647 37.6429 32.8446 36.0658C33.6023 33.4188 35.9965 35.5163 37.0242 36.4129C36.4518 32.7447 32.5757 31.9336 30.9948 34.9767C29.978 34.194 29.1439 33.3423 27.5189 33.218C27.8098 30.7869 27.4091 29.9784 26.7798 28.3623C28.125 27.0976 29.1422 25.9416 30.0308 24.4934C33.3166 25.1269 37.8989 25.8951 36.9767 29.0211C40.4682 25.269 36.2123 25.4344 36.5753 24.2592C36.9288 23.1144 39.1992 22.8058 39.988 24.6499C40.3353 21.0888 36.1337 21.0427 35.413 22.7747C33.7426 22.769 32.9857 21.9351 31.6565 21.0329C31.8989 20.2628 32.0749 19.4728 32.1827 18.672C33.6486 18.2636 35.2176 18.0467 36.5147 16.8707C38.7173 17.7353 40.2254 16.4379 40.1766 14.4959C40.1766 14.4959 37.3952 17.583 37.2505 14.3385C37.1913 13.0153 38.8676 11.7786 41 13.1404C39.4697 9.60538 35.5216 10.9692 35.5426 14.6143C34.167 15.2566 33.0787 15.2383 31.9583 14.8436C31.0622 12.1734 28.2216 11.3836 26.6828 10.2716C25.7373 9.58836 27.4695 8.01514 29.1117 8.7267C30.7538 9.43817 32.3177 8.61353 33.0916 7.82837C30.813 8.07471 28.8616 6.54167 28.9115 6.25541C28.9636 5.95626 31.5 5.58939 33.3681 6.76643C33.2323 3.73184 30.6909 3.62727 28.8461 3.51129C27.2144 0.446358 25.0865 0.126415 22.6758 1.34021C20.9962 1.21906 18.8786 0.75551 17.3529 0H17.3528ZM5.66544 0.592249C5.65493 0.608508 5.64715 0.626412 5.64243 0.645236C5.65024 0.627515 5.65754 0.60997 5.66544 0.592249ZM5.64243 0.645236C1.86943 9.11393 4.24421 16.416 9.21007 19.5557C7.39126 15.1559 7.65322 10.2156 8.69196 5.8202C7.02848 3.5863 5.48995 1.18739 5.64243 0.645236ZM24.8708 2.19161C25.0232 2.19161 27.4578 3.56472 27.4578 3.56472L25.454 3.84194L24.8708 2.19161Z" fill="#FFC400"/>
</svg>
