<svg width="40" height="40" viewBox="0 0 8 9" fill="none" xmlns="http://www.w3.org/2000/svg">
<path d="M4.37397 6.13349C4.42267 6.08339 4.50297 6.08229 4.55307 6.13099C4.60317 6.17969 4.60427 6.25999 4.55557 6.31009L3.98497 6.89699C3.89187 6.99289 3.76887 7.07189 3.63717 7.13129C3.51897 7.18459 3.39207 7.22309 3.27287 7.24439L3.37837 7.91619H6.03527L6.03577 7.54019C6.06007 6.63979 6.33697 6.25549 6.64927 5.82199C6.85377 5.53819 7.07477 5.23149 7.24087 4.72579C7.49757 3.94479 7.58167 3.09169 7.35957 2.35429C7.17597 1.74479 6.77997 1.21169 6.09437 0.862988C5.77007 0.697988 5.39347 0.597488 5.00187 0.563388C4.44857 0.515188 3.86677 0.599488 3.35947 0.820888L3.35357 0.823688C2.85037 1.04489 2.42097 1.40199 2.16817 1.89889C2.04337 2.14429 1.96087 2.42499 1.93337 2.74129C1.83737 3.84239 1.51587 4.15929 1.24217 4.42879C1.14867 4.52089 1.06127 4.60699 0.998266 4.71879C0.973866 4.76119 1.00367 4.79729 1.05717 4.82749C1.19777 4.90679 1.45247 4.95289 1.63977 4.98659L1.67017 4.99209C1.73707 4.99949 1.78707 5.05859 1.78257 5.12649C1.77137 5.28719 1.73707 5.39509 1.71057 5.47849C1.69457 5.52899 1.68257 5.56699 1.68547 5.58419C1.70297 5.68629 1.90357 5.68669 2.27097 5.68709L2.28947 5.68659C2.35367 5.68689 2.40877 5.73549 2.41547 5.80069C2.42257 5.87019 2.37187 5.93249 2.30237 5.93959L2.13017 5.95769C1.97857 5.97329 1.86927 5.98469 1.80167 6.00079C1.75377 6.01219 1.74727 6.03889 1.76407 6.11329L1.76697 6.12359C1.78517 6.20019 1.80507 6.34099 1.82147 6.50169C1.83677 6.65289 1.84927 6.82369 1.85407 6.97449L1.85567 6.99009C1.86097 7.03479 1.88297 7.07249 1.91437 7.09839C1.94717 7.12539 1.99117 7.14079 2.03847 7.13929L3.16887 7.00349C3.28417 6.98959 3.41367 6.95399 3.53297 6.90009C3.63797 6.85279 3.73407 6.79179 3.80337 6.72039L4.37397 6.13349ZM3.02197 7.27679L2.08697 7.38949L2.04647 7.39229C1.93607 7.39589 1.83267 7.35889 1.75357 7.29379C1.67307 7.22749 1.61727 7.13219 1.60377 7.02089L1.60107 6.98249C1.59657 6.83859 1.58437 6.67369 1.56947 6.52649C1.55457 6.37959 1.53647 6.25129 1.51997 6.18219L1.51787 6.17129C1.47877 6.00359 1.48007 5.90399 1.55207 5.83849C1.49107 5.79219 1.45237 5.72489 1.43547 5.62679C1.42207 5.54869 1.44207 5.48569 1.46857 5.40209C1.48407 5.35329 1.50277 5.29459 1.51587 5.22119C1.32257 5.18539 1.08947 5.13579 0.933166 5.04769C0.750766 4.94459 0.661266 4.80129 0.777466 4.59499C0.857366 4.45219 0.957466 4.35369 1.06457 4.24819C1.30737 4.00909 1.59247 3.72809 1.68037 2.71949C1.71077 2.36959 1.80267 2.05779 1.94197 1.78389C2.22347 1.23059 2.69747 0.834988 3.25137 0.591488L3.25847 0.588588C3.80527 0.349888 4.43057 0.258688 5.02367 0.310388C5.44677 0.347188 5.85537 0.456688 6.20937 0.636788C6.96357 1.02039 7.39967 1.60859 7.60257 2.28189C7.84077 3.07269 7.75337 3.97889 7.48207 4.80419C7.30407 5.34599 7.07057 5.67009 6.85467 5.96979C6.56697 6.36919 6.31157 6.72369 6.28887 7.54319L6.28927 8.04319C6.28927 8.11329 6.23237 8.17019 6.16227 8.17019H3.27027C3.20297 8.17019 3.14787 8.11779 3.14357 8.05149L3.02197 7.27679Z" fill="white"/>
</svg>
