<svg width="26" height="23" viewBox="0 0 26 23" stroke="none" fill="none" xmlns="http://www.w3.org/2000/svg">
<path fill-rule="evenodd" clip-rule="evenodd" d="M2.75143 2.82622C3.87321 1.70478 5.39447 1.07478 6.98067 1.07478C8.56686 1.07478 10.0881 1.70478 11.2099 2.82622L12.9626 4.57743L14.7153 2.82622C15.2671 2.25488 15.9272 1.79916 16.657 1.48565C17.3868 1.17215 18.1718 1.00713 18.9661 1.00023C19.7604 0.993324 20.5481 1.14468 21.2832 1.44545C22.0184 1.74623 22.6863 2.19041 23.2479 2.75207C23.8096 3.31373 24.2538 3.98163 24.5545 4.71679C24.8553 5.45195 25.0067 6.23965 24.9998 7.03392C24.9929 7.8282 24.8279 8.61315 24.5143 9.34297C24.2008 10.0728 23.7451 10.7329 23.1738 11.2847L12.9626 21.4974L2.75143 11.2847C1.62999 10.1629 1 8.64165 1 7.05545C1 5.46925 1.62999 3.948 2.75143 2.82622V2.82622Z"  stroke-width="1.5" stroke-linejoin="round"/>
</svg>
