<svg width="55" height="41" viewBox="0 0 55 41" fill="none" xmlns="http://www.w3.org/2000/svg">
<path d="M53.6966 10.2618C53.3744 9.45942 53.0258 8.6636 52.7298 7.84806C52.5062 7.22982 52.2431 6.67077 51.717 6.21696C51.0922 5.6908 50.566 5.05941 49.9083 4.56613C49.7899 4.48063 49.6781 4.3754 49.6189 4.18466C49.7241 3.55327 49.6912 2.86269 49.757 2.17868C49.7768 1.98137 49.6386 1.6591 49.6781 1.46179C49.7176 1.26448 49.9346 1.37628 50.1188 1.04743C49.928 0.777776 49.711 0.547581 49.4413 0.402887C49.198 0.271347 48.9678 0.00826693 48.6389 0.120076C48.2969 0.231885 48.2377 0.00169051 47.7116 0.63966C47.5998 0.777777 47.5077 0.942202 47.3367 1.02113C47.1854 1.02113 47.0539 0.975088 46.9092 0.929049C46.2054 0.725161 45.5346 0.429196 44.8374 0.192423C44.2652 -0.00488669 43.6864 -0.0575031 43.1011 0.06746C41.8515 0.337117 40.6084 0.59362 39.3522 0.830392C39.1417 0.869854 38.9378 0.909318 38.7603 1.04086C37.8132 1.7446 36.8595 2.43518 36.0111 3.25731C35.4192 3.83608 34.7286 4.26359 33.9591 4.56613C33.5907 4.71083 33.1961 4.81606 32.8081 4.77659C32.1372 4.69767 31.4729 4.82921 30.8087 4.78317C30.5653 5.00021 30.3943 5.26329 30.2299 5.52637C30.0655 5.78945 30.026 6.092 30.1707 6.36823C30.5851 7.13774 31.1704 7.77571 31.7689 8.4071C31.8676 8.51233 33.0251 8.98588 33.4855 9.09111C33.7815 9.15688 34.0183 9.34104 34.255 9.51204C34.3734 9.59754 35.3994 10.1434 35.3994 10.1434C35.3994 10.1434 28.4738 8.95957 26.7375 8.7228C25.0472 8.4926 23.3569 8.38737 21.6535 8.35449C20.1473 8.32818 18.6478 8.4926 17.1482 8.59126C16.6352 8.62414 16.1156 8.61099 15.6158 8.86092C12.6101 10.3605 9.6636 11.9521 6.78945 13.6819C6.53953 13.8331 6.29618 14.0041 6.08571 14.208C4.99393 15.2603 3.89557 16.3127 2.80379 17.365C2.5144 17.5952 1.70543 18.003 1.60677 18.3713C1.50812 18.733 1.92905 19.1934 2.28421 19.2065C3.10633 19.2394 3.94161 19.3184 4.77689 18.8908C4.70454 19.1276 4.6585 19.2855 4.60589 19.4367C4.22442 20.4825 3.84296 21.5282 3.44834 22.5608C2.81694 24.2116 2.1987 25.8625 1.79093 27.5856C1.66597 28.1118 1.5147 28.6248 1.33054 29.1312C1.02142 29.9797 0.87015 30.861 0.758341 31.7555C0.646532 32.6762 0.343989 37.4051 0.357143 37.655C-0.221633 38.6876 -0.103247 39.4703 0.758341 40.2858C2.67883 40.1675 4.61904 40.2201 6.55926 40.1609C6.74999 40.003 6.6908 39.7202 6.87495 39.615C7.07884 39.5163 7.25642 39.6479 7.56554 39.8781C7.54581 39.5492 7.17092 39.1875 6.9473 39.1086C6.71711 39.0296 6.44745 39.0296 6.25672 38.8849C6.0331 38.7139 5.78317 38.6811 5.52667 38.6416C5.15178 38.5824 4.77689 38.589 4.402 38.589C4.24415 38.589 4.07315 38.635 3.90873 38.5035C3.86269 38.2864 3.71799 38.0694 3.81007 37.8129C4.15207 36.9118 4.49408 36.0174 4.8887 35.1689C5.06628 35.0769 5.23728 35.09 5.3754 34.9782C6.61845 33.9785 7.87466 33.0709 9.05852 31.9857C9.38079 31.6897 10.5975 29.5456 10.9856 29.6771L11.7946 29.9599C11.7946 29.9599 11.5972 30.5848 11.4591 30.8807C11.2815 31.2753 11.1895 31.67 11.2421 32.1172C11.3342 32.8999 11.5446 33.6102 12.0905 34.2087C12.3733 34.5244 15.0962 37.7866 15.9118 38.8652C16.3327 39.4243 16.8852 39.661 17.5626 39.6413C18.8056 39.6018 20.0487 39.5492 21.2917 39.5032C21.7127 39.49 22.1402 39.4769 22.4822 39.2533C22.7584 39.2796 23.0412 39.3322 23.3043 39.444C23.3175 39.319 23.1925 39.1677 23.1267 39.1217C22.5611 38.7139 22.1073 38.3127 21.3904 38.3325C20.8971 38.3456 20.2526 38.3719 19.8382 38.2667C19.0095 37.1618 18.707 35.899 18.1742 34.7546C18.4439 34.4192 18.5294 34.0706 18.5886 33.7154C18.6873 33.1366 18.7859 32.5579 18.8911 31.9791C18.9372 31.7423 18.9701 31.499 19.1608 31.2885C20.9234 31.4069 22.6926 31.4135 24.4553 31.328C26.2113 31.2425 27.9608 31.0123 29.6709 30.7426C29.7761 30.8939 29.809 30.9991 29.8353 31.1109C30.072 32.012 30.3812 32.8867 30.7955 33.7286C31.2888 34.7217 31.7558 35.7346 32.2425 36.7343C32.4792 37.221 32.6371 37.734 32.6897 38.2733C32.716 38.5627 32.7752 38.8586 32.9988 39.0757C33.2685 39.1875 33.5447 39.2204 33.8209 39.2204C35.4389 39.2269 39.9902 39.2138 40.6479 39.2006C40.8978 39.1941 41.1346 39.1612 41.3056 38.9639C41.4371 38.9112 41.687 39.0033 41.9567 39.1151C41.8778 38.5035 41.4634 38.6087 41.253 38.4969C40.8912 38.3062 40.7334 37.9313 40.1677 37.9115C39.5035 37.9839 38.8326 38.0431 38.1552 37.8458C38.0368 37.4643 37.7079 37.2538 37.4449 36.9908C37.0305 36.583 36.8069 36.1029 36.7477 35.5241C36.6951 35.0374 36.5833 34.5638 36.4912 34.0837C36.386 33.5378 36.2413 32.9985 36.1755 32.4526C36.0637 31.5121 36.0571 30.5585 36.0769 29.6114C36.0769 29.4798 36.0571 29.3483 36.1821 29.1904C38.3328 28.5327 40.6281 28.171 42.7262 27.1779C43.2129 27.4146 43.6733 27.6777 44.16 27.8619C44.627 28.0395 44.8045 28.3749 44.8703 28.8221C45.0216 29.8942 45.0676 30.9662 45.14 32.0449C45.1531 32.2093 45.1728 32.3803 45.0873 32.525C44.8111 33.0051 44.6401 33.5444 44.3902 34.0377C44.0021 34.8138 43.864 35.6096 44.0482 36.458C44.0548 36.5041 44.0416 36.5567 44.0416 36.5961C43.9693 36.754 43.8574 36.8329 43.6996 36.8198C43.4826 36.7869 43.4102 36.7145 43.1208 36.5896C43.3181 37.0763 44.0087 37.4117 44.4625 37.221C44.6598 37.1355 44.8572 37.05 45.0676 37.0236C45.4622 36.9645 45.699 36.7145 45.8963 36.4054C46.5803 35.3268 47.3827 34.3336 48.1851 33.3405C48.3693 33.1103 48.5337 32.8736 48.6521 32.6039C49.2901 31.1701 49.7965 29.6837 50.2963 28.1973C50.4345 27.7895 50.4739 27.3686 50.5134 26.9477C50.5463 26.6057 50.4673 26.2702 50.3358 25.948C49.9872 25.0798 49.5597 24.2577 49.0204 23.4947C48.9086 23.3369 48.7705 23.1922 48.7507 22.9423C49.2835 22.3306 49.6518 21.5743 50.0924 20.8705C50.2437 20.6338 50.3884 20.397 50.5594 20.1799C51.6117 18.8119 52.447 17.3124 53.1639 15.7536C53.4336 15.1748 53.6966 14.5961 53.9071 13.991C54.065 13.5503 54.2623 13.1031 54.2162 12.6164C54.1439 11.7943 53.9926 11.0116 53.6966 10.2618ZM1.27135 30.9136C1.23188 30.8741 1.23189 30.8347 1.27792 30.8018C1.31739 30.8413 1.32396 30.8807 1.27135 30.9136ZM44.89 35.432C44.89 35.4583 44.89 35.4846 44.8966 35.5109C44.8308 35.4912 44.8572 35.4649 44.89 35.432ZM49.9938 11.347C50.1714 11.6824 50.3818 12.0179 50.2963 12.4388C50.0069 12.4848 49.8886 12.281 49.7899 12.11C49.4742 11.5575 49.1322 11.005 49.1585 10.3144C49.6452 10.5183 49.7899 10.959 49.9938 11.347ZM48.218 0.580467C48.5863 0.679122 48.9875 0.718584 49.2572 1.0277C49.2703 1.23817 48.948 1.12636 48.8691 1.26448C48.8823 1.37628 49.0335 1.61306 49.0401 1.72487C49.073 2.32995 49.0072 2.94161 48.606 3.4875C48.3232 3.38227 48.1522 3.23758 48.1522 2.9745C48.1522 2.3168 48.0338 1.67883 47.8102 1.07374C47.9155 0.876432 48.0536 0.738315 48.218 0.580467ZM37.2804 2.68511C37.7869 2.16553 38.5893 1.60648 39.076 1.29078C39.4377 1.05401 42.6144 0.626506 43.818 0.475235C44.3376 0.409465 44.7848 0.619928 45.2386 0.889586C44.9361 0.915894 44.627 0.948779 44.3244 0.975087C42.8906 1.09347 41.4766 1.33682 40.0757 1.67883C39.6876 1.7709 39.339 1.92218 38.997 2.12606C38.5432 2.38914 37.0108 3.09288 37.0108 3.09288C37.0108 3.09288 37.1752 2.79692 37.2804 2.68511ZM37.9645 3.74401C38.0302 3.93474 37.8 4.13205 37.7474 4.30963C37.1686 4.71083 36.8529 4.76344 36.4715 4.48063C36.5241 3.75058 37.2147 3.42173 37.9645 3.74401ZM33.6368 14.971C33.4 15.2669 33.0843 15.4774 32.6963 15.5234C32.5845 15.5366 32.4727 15.4774 32.3806 15.3393C32.4398 14.892 32.933 14.4645 33.3408 14.4908C33.6105 14.5106 33.7881 14.7802 33.6368 14.971ZM32.9199 16.5626C32.6831 16.8059 32.4003 16.9901 31.9991 16.9638C31.907 16.4574 32.2227 16.1877 32.841 16.1877C32.9725 16.2929 33.0317 16.4508 32.9199 16.5626ZM32.3477 12.5112C31.9925 12.8663 31.4072 12.8597 31.0257 12.5046C31.3874 12.2546 32.0451 12.2546 32.3477 12.5112ZM31.7689 13.3596C32.1307 13.3135 32.5318 13.182 32.887 13.4911C32.6831 13.9384 32.2819 14.0107 31.9202 14.0962C31.6176 14.1686 31.2822 14.2475 30.9994 13.9647C31.1375 13.5898 31.4269 13.4056 31.7689 13.3596ZM29.7432 11.939C30.072 11.7745 30.3943 11.5575 30.7626 11.8206C30.8021 12.0902 30.6442 12.2086 30.4601 12.281C30.1575 12.4059 29.8813 12.6624 29.5064 12.5046C29.4078 12.2283 29.513 12.0508 29.7432 11.939ZM30.5587 13.6556C30.2891 14.0831 29.7498 14.2606 29.2697 14.0896C29.1842 13.7279 29.2499 13.6292 29.6511 13.4648C30.1444 13.2675 30.3351 13.307 30.5587 13.6556ZM28.1384 10.6038C28.783 10.1829 29.1776 10.2618 29.4998 10.8537C29.2433 11.2155 28.6514 11.3668 28.1713 11.1958C28.0595 11.005 28.0529 10.8011 28.1384 10.6038ZM26.0272 9.95927C26.2771 9.68304 27.1255 9.63043 27.4018 9.87377C27.4873 9.9527 27.5531 10.0448 27.5531 10.2092C27.2505 10.5381 26.5073 10.7025 26.1587 10.5249C25.922 10.3934 25.8562 10.15 26.0272 9.95927ZM7.76943 16.2535C7.87466 15.7799 8.26928 15.5234 8.61786 15.2603C8.90067 15.0433 9.20979 14.8197 9.68334 14.8986C9.48603 15.6089 8.90067 15.8457 8.42713 16.1877C8.24955 16.3127 8.04566 16.4837 7.76943 16.2535ZM11.0514 16.51C10.6436 16.8914 10.1766 17.194 9.67676 17.4308C9.45972 17.536 9.20979 17.6018 8.97302 17.3387C9.0651 16.8388 9.45314 16.5626 9.85434 16.3258C10.2818 16.0759 10.7093 15.7997 11.2552 15.9049C11.321 16.2272 11.1895 16.3784 11.0514 16.51ZM13.9387 16.4705C13.8466 16.0364 13.8926 15.8457 14.2083 15.3195C14.4517 15.1683 14.7542 15.1946 15.0041 15.1025C15.1751 15.1551 15.1949 15.2735 15.1751 15.3919C15.1159 15.7142 15.0567 16.0364 14.8594 16.3061C14.6884 16.5494 14.2938 16.6086 13.9387 16.4705ZM15.6421 22.5542C15.5698 22.7976 15.4514 22.8568 15.1554 22.9423C14.8792 22.4293 15.1488 21.7321 15.7671 21.4756C16.0038 21.8965 15.7473 22.2188 15.6421 22.5542ZM17.8586 22.4556C17.6086 22.9028 17.2798 23.2974 16.6944 23.4553C16.6023 22.7318 17.2995 21.7453 17.9769 21.5743C18.2006 21.9031 18.0032 22.1991 17.8586 22.4556ZM16.6813 20.8376C16.5366 20.7456 16.5695 20.6206 16.6023 20.4891C16.7142 20.0484 16.8128 19.6012 16.9443 19.1605C17.1022 18.6343 17.5823 18.2003 18.0953 18.1082C18.24 19.2131 17.6481 20.6206 16.6813 20.8376ZM17.9375 16.6152C17.6547 17.0361 17.3127 17.4308 16.7536 17.5228C16.5103 16.6678 17.26 15.5432 18.1085 15.4971C18.3058 15.8983 18.1545 16.2929 17.9375 16.6152ZM18.4965 24.6128C18.4242 24.0143 19.0819 23.1988 19.8119 23.1001C19.7725 23.5868 19.5028 23.8894 19.2397 24.1788C18.8517 24.5997 18.8254 24.6063 18.4965 24.6128ZM35.5112 21.765C35.2745 21.5019 35.406 21.2125 35.4849 20.9494C35.577 20.6535 35.6165 20.3049 35.9914 20.1865C36.3136 20.6666 36.09 21.4098 35.5112 21.765ZM36.432 23.2054C36.3136 22.6595 36.8398 21.9689 37.5369 21.7781C37.629 22.5016 37.1357 23.1264 36.432 23.2054ZM49.0796 19.7195C48.9217 20.2062 48.3824 20.8442 47.922 21.0086C47.9681 20.568 47.9944 19.5814 47.9944 19.5814C47.9944 19.5814 47.6853 19.713 47.5932 19.8906C47.238 20.568 46.7184 21.1073 46.1462 21.6071C45.6661 22.0215 45.186 22.4424 44.719 22.8831C44.0416 23.5145 43.3642 23.5868 43.3642 23.5868C43.3642 23.5868 43.693 22.1925 43.8969 21.7518C44.0613 21.3967 44.2192 21.035 44.2981 20.6535C44.3441 20.4233 44.3705 20.1931 44.0482 20.0352C43.4365 20.4036 42.7657 20.7324 42.1737 21.1994C41.4305 21.7913 40.6413 22.3109 39.8389 22.8239C39.3917 23.1133 38.9181 23.2251 38.3985 23.2119C38.2867 23.2119 38.1683 23.2119 38.0631 23.0804C38.221 22.4293 38.7668 21.8439 38.5827 21.0481C38.2341 21.1402 37.9381 21.3441 37.583 21.298C37.4514 21.1862 37.4449 20.0747 37.3594 19.6735C37.1949 18.8843 37.0305 18.7133 36.1755 18.5423C35.6822 19.0882 34.5115 20.1405 34.4326 20.1207C34.4786 19.5222 34.8601 18.9566 34.6694 18.3581C34.4918 18.2726 34.4063 18.345 34.3339 18.4436C33.9722 18.8908 33.6171 19.3315 33.2553 19.7787C33.2027 19.8445 33.1567 19.9103 33.0975 19.9629C32.4332 20.5219 31.0652 21.7847 30.9599 21.7453C31.1244 21.1533 31.4598 20.5877 31.3348 19.9629C31.2296 19.8971 31.1638 19.9169 31.1244 19.9695C30.6048 20.6206 30.0457 21.2388 29.6972 22.0149C29.3749 22.7318 28.9934 23.4224 28.7369 24.159C28.3226 25.356 27.632 26.3755 26.7967 27.3094C26.5599 27.5725 26.3626 27.875 26.0535 28.0921C25.8759 27.9013 25.8628 27.704 25.922 27.487C25.9746 27.2963 26.1061 26.4807 26.093 26.1519C25.8233 26.3031 25.4024 26.8424 25.2906 26.9871C24.7513 27.7106 23.9817 28.1052 23.1793 28.4538C23.1202 28.4801 23.0544 28.4933 22.9755 28.4538C22.8702 28.2828 22.982 28.1184 23.0412 27.9605C23.1991 27.5462 23.7713 26.6057 23.6858 26.3163C23.3701 26.4807 23.3372 26.6386 23.107 26.8819C22.6466 27.362 21.8968 27.7895 21.272 28.0263C21.0879 28.0987 20.9103 28.1842 20.6801 28.0921C20.5617 27.6843 20.8379 27.3949 21.0155 27.0858C21.1997 26.7635 21.4167 26.461 21.614 26.1584C21.4693 25.9809 20.5946 26.6386 20.2526 26.8622C19.8448 27.1384 19.4041 27.3554 18.8977 27.3883C18.8188 27.3949 18.7333 27.4146 18.6412 27.3291C18.7136 26.8227 18.9109 26.3492 19.1937 25.9085C19.516 25.4021 19.8251 24.8825 20.1145 24.3498C20.4696 23.6855 20.7459 22.9883 20.7787 22.2188C20.7853 21.9886 20.759 21.7913 20.4302 21.7255C20.0224 22.0412 19.5423 22.3175 19.0819 22.5937C18.9372 22.6069 18.8583 22.5411 18.7859 22.4161C18.8517 21.9228 19.1674 21.4493 19.049 20.9692C18.9109 20.7324 18.6807 20.7193 18.5294 20.568C18.5491 20.2457 18.6149 19.9234 18.7201 19.6209C19.1805 18.2134 19.1674 16.7928 18.878 15.359C18.8056 14.9973 18.7267 14.6224 18.4308 14.333C18.0493 14.2146 17.6547 14.2606 17.2666 14.2869C16.5629 14.3396 15.8591 14.3724 15.1554 14.3659C14.5569 14.3593 13.9847 14.4514 13.4257 14.6618C12.8995 14.8591 12.3602 14.9775 11.7946 14.9512C11.4065 14.9315 11.0514 15.0367 10.7225 15.2406C10.6238 15.2998 10.5383 15.3853 10.4068 15.3853C10.3213 15.359 10.2424 15.2998 10.17 15.188C10.2029 14.9446 10.295 14.675 10.2292 14.379C10.1832 14.2672 10.0714 14.2014 9.97272 14.1291C9.39395 14.1883 8.93356 14.6092 8.3219 14.6026C8.22982 14.3659 8.3482 14.208 8.47974 14.0633C8.53236 14.0041 8.61128 13.9647 8.67705 13.9186C10.9001 12.5309 13.2152 11.3207 15.6289 10.2947C17.168 9.56465 21.2852 9.78169 22.206 9.808C22.3178 9.81458 22.4493 9.80143 22.5414 9.84089C23.1202 10.1105 23.7384 10.15 24.3632 10.1895C24.4421 10.196 24.5276 10.196 24.5868 10.2684C24.5934 10.4394 24.3435 10.4394 24.3632 10.6893C24.9157 10.9787 25.5997 11.0313 26.1916 11.3141C26.777 11.5969 27.4544 11.6035 28.0266 11.8863C27.974 12.1494 27.7109 12.2481 27.7438 12.5243C27.9279 12.886 28.3818 12.8268 28.6975 13.0439C28.5067 13.5174 28.0332 13.866 28.0529 14.4777C28.612 14.7013 29.2236 14.7342 29.7958 14.9052C30.368 15.0828 30.9534 15.2275 31.5321 15.3787C31.5848 15.5234 31.4861 15.6023 31.4335 15.701C31.3283 15.8852 31.2099 16.0627 31.1178 16.2535C30.7955 16.9112 30.9731 17.2861 31.6966 17.4702C31.7755 17.536 31.7492 17.6675 31.8741 17.7136C31.9005 17.7136 31.9531 17.7333 31.9991 17.7201C32.2227 17.6675 32.4266 17.5689 32.6305 17.4571C33.6565 16.8651 34.5576 16.1088 35.3994 15.2801C35.5573 15.1222 35.6954 14.9315 35.9256 14.8131C36.4452 14.9578 36.9713 14.971 37.4843 14.7013C37.629 14.6224 37.7934 14.5829 37.9776 14.6553C38.2933 14.8657 38.142 15.2866 38.3657 15.5826C38.7537 15.6484 39.1089 15.484 39.3851 15.2538C40.4703 14.3527 41.4042 13.3004 42.3579 12.2349C41.9896 11.6825 41.6607 11.1168 41.2595 10.6038C40.6939 9.88693 39.8915 9.57781 39.0036 9.45285C37.6816 9.26211 36.3531 9.0648 35.0311 8.84119C34.6168 8.76884 34.209 8.63072 33.7946 8.51891C33.5579 8.45314 33.3277 8.36106 33.0843 8.32818C32.3543 8.21637 31.5124 7.16405 31.5124 7.16405C31.5124 7.16405 32.2688 6.65104 32.499 6.30904C32.5713 5.9473 32.2359 5.45403 32.2359 5.45403C32.2359 5.45403 33.0646 5.30276 33.4395 5.29618C33.7026 5.4343 33.8012 5.63161 33.8801 5.85522C34.0314 6.26958 34.1958 6.67735 34.3603 7.08512C34.4194 7.23639 34.8733 7.44686 34.9588 7.34163C35.0245 7.13774 34.8338 6.9207 34.9588 6.61816C35.0903 6.48004 35.2876 6.28273 35.4718 6.07884C35.5902 5.9473 35.7414 5.90784 35.9124 5.90784C36.9779 5.89469 41.0491 5.73026 41.5226 5.71711C42.2527 5.69738 42.8512 5.96046 43.3839 6.44715C44.1666 7.17063 45.0216 7.80202 45.916 8.38079C46.5606 8.80172 47.1591 9.28184 47.7445 9.78827C47.9812 9.99216 48.1193 10.2355 48.1588 10.5381C48.4153 12.3862 48.9086 14.1817 49.2309 16.0167C49.4676 17.2532 49.4808 18.4896 49.0796 19.7195ZM36.4123 14.3067C36.4781 13.7608 36.9319 13.4517 37.4383 13.5635C37.5633 13.7674 37.4449 13.9121 37.2936 14.0107C37.0371 14.1686 36.8201 14.4777 36.4123 14.3067ZM50.2569 15.0499C49.8623 14.8263 49.6781 14.4514 49.54 14.0633C49.4282 13.7411 49.244 13.4056 49.4676 13.0242C50.0201 13.2478 50.1451 13.7411 50.3161 14.1817C50.4739 14.5961 50.4476 14.7013 50.2569 15.0499Z" fill="#2B2D42"/>
<path d="M21.4101 18.3515C20.9103 18.2791 20.6998 18.3383 20.4762 18.6474C20.0618 19.2262 19.7856 19.8642 19.6869 20.5745C19.6606 20.7455 19.6343 20.9297 19.779 21.0744C20.8971 20.6337 21.5811 19.4959 21.4101 18.3515Z" fill="#2B2D42"/>
<path d="M45.6398 19.3053C45.1597 19.9893 44.8045 20.7193 44.6598 21.5217C44.7782 21.6467 44.8703 21.6993 44.9953 21.6861C46.0279 20.7259 46.5211 19.5749 46.1528 18.9106C45.8897 18.9172 45.7648 19.1277 45.6398 19.3053Z" fill="#2B2D42"/>
<path d="M12.0313 12.9716C11.4657 13.4649 11.3736 13.6951 11.5446 14.2344C11.8669 14.2344 12.2089 14.2212 12.5443 14.2344C12.9455 14.2475 13.1823 14.0502 13.327 13.7017C13.3928 13.5372 13.4651 13.3728 13.4651 13.1097C12.9784 12.9124 12.4851 12.9519 12.0313 12.9716Z" fill="#2B2D42"/>
<path d="M22.6861 22.1005C22.5348 21.9821 22.3704 21.9624 22.127 22.0676C21.7916 22.6858 21.2983 23.2843 21.3904 24.1657C21.5417 24.1657 21.6075 24.1722 21.6732 24.1657C21.785 24.1525 21.8968 24.1393 21.9955 24.1262C22.6598 23.4882 22.9492 22.6727 22.6861 22.1005Z" fill="#2B2D42"/>
<path d="M22.8965 19.2263C22.8834 18.9566 22.7781 18.8645 22.4427 18.7725C21.9231 19.4236 21.7784 20.2983 22.1467 20.8179C22.6795 20.3773 22.9294 19.8708 22.8965 19.2263Z" fill="#2B2D42"/>
<path d="M24.7973 25.9414C24.5342 26.3163 24.2448 26.6912 24.2251 27.191C24.475 27.2305 24.6 27.1121 24.692 26.9871C25.0801 26.4675 25.6063 26.0466 25.8299 25.4086C25.8562 25.3231 25.8364 25.2508 25.7312 25.1719C25.2971 25.264 25.0406 25.606 24.7973 25.9414Z" fill="#2B2D42"/>
<path d="M21.7587 27.1911C22.3835 27.007 22.7058 26.5532 23.0281 26.1125C23.1662 25.9218 23.2846 25.6982 23.1333 25.4482C22.4625 25.6192 21.7521 26.4808 21.7587 27.1911Z" fill="#2B2D42"/>
<path d="M20.8314 24.6787C20.1145 25.1457 19.7001 25.7047 19.687 26.2506C20.3052 26.152 21.0616 25.3824 21.1208 24.8168C21.0879 24.7905 21.0484 24.7576 21.009 24.7379C20.9498 24.7116 20.884 24.6984 20.8314 24.6787Z" fill="#2B2D42"/>
<path d="M39.6745 21.5677C39.76 21.6927 39.8323 21.7782 39.9573 21.8176C40.2006 21.6795 40.4571 21.5414 40.6742 21.4164C40.9241 20.9034 40.9241 20.8968 40.9044 20.4036C40.2401 20.5877 39.931 21.0547 39.6745 21.5677Z" fill="#2B2D42"/>
<path d="M25.0933 23.8301C24.4224 24.0471 24.0015 24.7377 24.2185 25.2836C24.771 25.0468 25.159 24.4154 25.0933 23.8301Z" fill="#2B2D42"/>
</svg>
