<svg width="16" height="10" viewBox="0 0 16 10" fill="black" xmlns="http://www.w3.org/2000/svg">
<path d="M0.609375 10V0.545454H4.69034C5.39205 0.545454 6.00604 0.683949 6.53232 0.960938C7.05859 1.23793 7.46792 1.62725 7.7603 2.12891C8.05268 2.63056 8.19886 3.21686 8.19886 3.88778C8.19886 4.56487 8.04806 5.15116 7.74645 5.64666C7.44792 6.14216 7.02782 6.52379 6.48615 6.79155C5.94756 7.0593 5.31818 7.19318 4.59801 7.19318H2.16051V5.19886H4.08097C4.38258 5.19886 4.63956 5.14654 4.85192 5.0419C5.06735 4.93419 5.23201 4.78184 5.34588 4.58487C5.46283 4.3879 5.52131 4.15554 5.52131 3.88778C5.52131 3.61695 5.46283 3.38613 5.34588 3.19531C5.23201 3.00142 5.06735 2.85369 4.85192 2.75213C4.63956 2.64749 4.38258 2.59517 4.08097 2.59517H3.17614V10H0.609375ZM9.14062 10V0.545454H11.7074V7.93182H15.5298V10H9.14062Z"/>
</svg>
