<svg width="39" height="42" viewBox="0 0 39 42" fill="none" xmlns="http://www.w3.org/2000/svg">
<path d="M38.8341 37.6156C38.7589 37.4494 38.6702 37.2896 38.5688 37.1378C38.5435 37.0982 38.5139 37.0616 38.4804 37.0287C37.9994 36.5381 37.3841 36.2002 36.7115 36.0574C36.6579 36.0523 36.6039 36.0523 36.5503 36.0574C35.9728 35.9536 35.2861 35.8756 34.6722 35.8029L33.7045 35.6783C33.3976 35.6211 32.3935 34.9251 30.583 32.6865C30.3645 32.4165 30.1772 32.1983 30.0212 32.0113C29.4697 31.3569 29.4385 31.2998 29.4385 30.9725C29.5035 30.1558 29.6463 29.347 29.8651 28.5573C29.9431 28.1938 30.0212 27.8406 30.0888 27.5185C36.9248 24.1113 39.3544 19.0731 37.2838 12.6014L36.8832 9.14225C36.493 5.34026 34.7242 2.32256 32.0293 0.873443C30.918 0.29274 29.681 -0.00711572 28.4266 0.000128196C27.1723 0.00737212 25.9389 0.321495 24.8343 0.914995C20.9429 0.395597 18.1647 1.18508 16.578 3.21073C16.493 3.31973 16.4386 3.44932 16.4204 3.58622C16.4021 3.72312 16.4206 3.86241 16.4739 3.98983C16.5252 4.11781 16.6103 4.22944 16.7203 4.31272C16.8303 4.396 16.961 4.44777 17.0982 4.46248C17.4208 4.50403 17.7277 4.5352 18.0243 4.56636C19.1449 4.65728 20.2534 4.86088 21.333 5.17406C22.9406 5.63632 24.5326 7.19451 24.1684 8.51897C24.1263 8.68261 24.1373 8.85534 24.1996 9.0124L23.8198 9.22536C23.7627 9.26233 23.7087 9.30403 23.6586 9.35001C23.5688 9.44605 23.4714 9.53464 23.3672 9.6149C21.1731 11.3397 19.133 13.2513 17.2699 15.3283C16.3439 16.3671 15.0901 17.7175 13.7635 19.1199C10.9281 22.1324 7.7182 25.5448 6.19388 27.8458C6.13422 27.9371 6.0943 28.0399 6.07667 28.1476C6.05905 28.2552 6.06411 28.3653 6.09153 28.4709C6.11894 28.5765 6.16812 28.6752 6.2359 28.7607C6.30369 28.8463 6.3886 28.9167 6.48522 28.9677C6.9216 29.1783 7.4072 29.2662 7.88988 29.2222C7.59334 29.5805 7.26038 29.9701 6.91702 30.3804C3.41576 34.5356 0.486776 38.1039 0.0757817 39.7296C-0.04447 40.1118 -0.0209919 40.5247 0.141817 40.8909C0.304625 41.2571 0.595592 41.5515 0.9602 41.7189C1.40059 41.9132 1.87826 42.009 2.35966 41.9993C5.3979 41.9993 9.44022 38.883 9.95526 38.4674C10.3194 38.1818 10.694 37.8753 11.0738 37.5533C11.0961 37.7055 11.1651 37.8471 11.2715 37.9584C11.383 38.0815 11.5315 38.1652 11.6947 38.197C11.8578 38.2289 12.027 38.2071 12.1767 38.135L13.5762 37.4338L13.6438 37.3975C14.2874 36.986 14.8932 36.5184 15.4543 36.0003C16.4338 35.1144 17.4966 34.3247 18.6278 33.6422L19.4602 33.9798C20.4332 34.8568 21.336 35.8085 22.1602 36.8261L22.2175 36.8937C21.7544 37.5273 21.4163 38.1558 21.6608 38.8881C21.7057 39.022 21.7862 39.1412 21.8937 39.233C22.0012 39.3247 22.1316 39.3856 22.2711 39.409C22.4105 39.4325 22.5537 39.4177 22.6854 39.3662C22.8171 39.3147 22.9323 39.2285 23.0186 39.1167L23.0967 39.0128L23.1955 38.8778C23.4622 39.0926 23.8006 39.1984 24.1424 39.1738C24.1856 39.1789 24.2292 39.1789 24.2724 39.1738C25.3129 39.0232 27.4459 38.7895 28.4968 38.7531L28.3876 38.5609C28.3735 38.5413 28.3614 38.5205 28.3512 38.4986L26.7124 35.0186L24.6626 32.5359C24.5981 32.4565 24.5498 32.3651 24.5206 32.267C24.4914 32.1689 24.4819 32.0661 24.4925 31.9643C24.5031 31.8625 24.5337 31.7638 24.5826 31.6739C24.6314 31.5839 24.6975 31.5044 24.7771 31.44C24.8567 31.3755 24.9482 31.3274 25.0464 31.2982C25.1447 31.2691 25.2477 31.2595 25.3496 31.2701C25.4516 31.2808 25.5504 31.3113 25.6405 31.3601C25.7306 31.4088 25.8102 31.4748 25.8748 31.5543L27.9558 34.1097C27.9983 34.1598 28.0333 34.2158 28.0598 34.2759L29.709 37.8234L30.2657 38.7687C30.4534 38.7386 30.6227 38.6383 30.7391 38.4882C30.8818 38.5298 31.0281 38.5577 31.1761 38.5713C31.3176 38.5919 31.4613 38.5919 31.6027 38.5713H31.8576H31.9565H32.0501C32.1781 38.6562 32.3283 38.7015 32.4819 38.7015C32.6356 38.7015 32.7858 38.6562 32.9137 38.5713L33.6109 38.6544C33.9542 38.7012 34.308 38.7479 34.6514 38.7635C34.812 38.7724 34.9715 38.7325 35.109 38.649C35.2464 38.5656 35.3553 38.4425 35.4213 38.296C35.6172 38.3041 35.8121 38.3284 36.004 38.3688L36.2225 38.4311C36.4089 38.4894 36.6006 38.5294 36.7948 38.5505C37.0471 38.5785 37.3025 38.5447 37.5387 38.4519L37.7 38.5661C37.8396 38.6517 38.0026 38.6913 38.166 38.6793C38.3294 38.6673 38.4848 38.6042 38.6103 38.499C38.7357 38.3939 38.8249 38.252 38.8651 38.0934C38.9052 37.9349 38.8944 37.7677 38.8341 37.6156ZM27.8777 4.6131C27.7773 4.58555 27.6833 4.53818 27.6015 4.47379C27.5196 4.40941 27.4515 4.32931 27.4012 4.23822C27.3509 4.14713 27.3193 4.0469 27.3084 3.94344C27.2975 3.83998 27.3074 3.73538 27.3376 3.63582C27.3679 3.53626 27.4178 3.44376 27.4844 3.36376C27.551 3.28376 27.633 3.21789 27.7255 3.17004C27.818 3.12219 27.9192 3.09333 28.0231 3.08515C28.127 3.07697 28.2315 3.08965 28.3304 3.12243L30.0004 3.64183C30.1771 3.69763 30.3281 3.8144 30.4265 3.97123C30.5248 4.12806 30.564 4.31471 30.5371 4.49778C30.5102 4.68085 30.4189 4.84839 30.2796 4.97039C30.1402 5.0924 29.962 5.16091 29.7766 5.16367C29.6993 5.16389 29.6222 5.1534 29.5477 5.1325L27.8777 4.6131Z" fill="white"/>
</svg>
