<svg width="84" height="31" viewBox="0 0 84 31" fill="none" xmlns="http://www.w3.org/2000/svg">
<path d="M31.379 27.1586L21.34 7.29162C21.2775 7.16271 21.1838 7.03381 21.0822 6.92834C20.5392 6.35412 19.8947 6.3385 19.7384 6.36584C19.379 6.36584 18.6993 6.47522 18.2618 7.17443C18.2071 7.25255 18.1641 7.33459 18.129 7.41662L16.3087 11.5299C15.1759 14.069 12.6446 15.6432 9.87897 15.5455C6.90237 15.4283 3.94928 14.944 1.21098 14.1432L0.117179 13.7292L4.69918 13.0963C6.47258 12.9088 8.17578 12.2331 9.62888 11.1393C10.9844 10.112 12.0742 8.74095 12.7773 7.16665L13.414 5.71745C14.4296 3.45575 16.3359 1.87365 18.5195 1.47915C21.1445 0.990866 23.7304 2.01821 25.1679 3.99865L34.371 20.9756C33.621 20.8975 32.8437 20.7374 32.0468 20.5108C32.9023 22.2413 34.8906 23.3389 36.871 22.921C38.7382 22.503 40.5702 20.671 40.0898 18.6827C39.3984 19.5499 38.6289 20.1163 37.8086 20.4874C37.8086 20.4757 37.8125 20.464 37.8125 20.4483C37.8125 20.3663 37.8086 20.2804 37.8008 20.1944L36.3828 12.5694C36.3672 12.4991 36.3515 12.4288 36.3281 12.3624C35.0117 8.49131 36.2109 4.17881 39.2422 1.87441C42.1797 -0.379493 46.125 -0.602193 49.1563 1.21425L54.0352 4.93305C55.6993 5.93305 57.6914 6.10885 59.5 5.41743L62.9062 4.12053C64.3437 3.57365 65.8515 3.42912 67.3046 3.62444C67.0273 3.89788 66.8515 4.27678 66.8515 4.69474C66.8515 5.53458 67.5116 6.19474 68.3515 6.19474C69.1718 6.19474 69.8515 5.53458 69.8515 4.69474C69.8515 4.55802 69.8085 4.43693 69.7734 4.31193C71.0117 4.86271 72.1406 5.69473 73.0468 6.78463C73.9608 7.89013 73.9686 9.50343 73.0702 10.6205L72.9374 10.7885C72.0702 11.8627 70.996 12.6947 69.8085 13.2651C69.8202 13.187 69.8554 13.1167 69.8554 13.0346C69.8554 12.2143 69.1757 11.5346 68.3554 11.5346C67.5155 11.5346 66.8554 12.2143 66.8554 13.0346C66.8554 13.4292 67.0116 13.7768 67.2499 14.0385C65.9647 14.226 64.6249 14.1401 63.3202 13.7456L60.1093 12.7729C57.8749 12.0932 55.6718 11.2417 53.5702 10.2377L53.0546 9.99161C52.1093 9.53849 51.2382 9.01505 50.4491 8.40961L46.7225 5.5893C45.2381 4.70258 43.5428 4.82369 42.2264 5.88228C41.1483 6.70259 40.242 8.28067 40.8905 10.2104L43.7889 20.2964C44.9295 23.687 43.6365 27.3706 40.703 29.0542C37.4296 30.9292 33.6171 30.144 31.3905 27.148L31.379 27.1586ZM80.5 8.41662C81.5391 7.95568 82.8398 8.43615 84 8.23693C83.2383 7.61584 82.3398 7.09633 81.5195 6.59633C79.8984 5.65492 78.0195 6.79555 76.5976 7.0768C76.5585 7.0768 76.5195 7.09633 76.496 7.09633C76.6367 7.61586 76.7148 8.15493 76.7148 8.71743C76.7148 9.17837 76.6562 9.65884 76.5546 10.0963C78.1562 9.91664 79.7929 8.97523 80.496 8.41663L80.5 8.41662Z" fill="#2B2D42"/>
</svg>
